<svg xmlns="http://www.w3.org/2000/svg" viewBox="0 0 64 64"><title>globe-laptop</title><g id="globe-laptop"><rect x="6" y="18" width="52" height="37" fill="#fff"/><rect x="10" y="22" width="44" height="29" fill="#ffcb47"/><circle cx="32" cy="18" r="16" fill="#5ce7ff"/><circle cx="32" cy="18" r="13" fill="#00c9e0"/><path d="M2,55H62a0,0,0,0,1,0,0v5a2,2,0,0,1-2,2H4a2,2,0,0,1-2-2V55a0,0,0,0,1,0,0Z" fill="#fff"/><rect x="2.5" y="59" width="59" height="3" fill="#ccc"/><path d="M2,55H62a0,0,0,0,1,0,0v5a2,2,0,0,1-2,2H4a2,2,0,0,1-2-2V55a0,0,0,0,1,0,0Z" fill="none" stroke="#3e3948" stroke-miterlimit="10" stroke-width="2"/><path d="M6,55V19a1,1,0,0,1,1-1h6" fill="none" stroke="#3e3948" stroke-miterlimit="10" stroke-width="2"/><path d="M58,55V19a1,1,0,0,0-1-1H51" fill="none" stroke="#3e3948" stroke-miterlimit="10" stroke-width="2"/><line x1="28" y1="58" x2="36" y2="58" fill="none" stroke="#3e3948" stroke-miterlimit="10" stroke-width="2"/><circle cx="32" cy="18" r="16" fill="none" stroke="#3e3948" stroke-miterlimit="10" stroke-width="2"/><line x1="32" y1="2" x2="32" y2="34" fill="none" stroke="#3e3948" stroke-miterlimit="10" stroke-width="2"/><line x1="48" y1="18" x2="16" y2="18" fill="none" stroke="#3e3948" stroke-miterlimit="10" stroke-width="2"/><path d="M18.29,8.86S22.92,12.29,32,12.29,45.71,8.86,45.71,8.86" fill="none" stroke="#3e3948" stroke-miterlimit="10" stroke-width="2"/><path d="M32,2a19.79,19.79,0,0,1,8,16,19.79,19.79,0,0,1-8,16" fill="none" stroke="#3e3948" stroke-miterlimit="10" stroke-width="2"/><path d="M45.71,27.14S41.08,23.71,32,23.71s-13.71,3.43-13.71,3.43" fill="none" stroke="#3e3948" stroke-miterlimit="10" stroke-width="2"/><path d="M32,34a19.79,19.79,0,0,1-8-16A19.79,19.79,0,0,1,32,2" fill="none" stroke="#3e3948" stroke-miterlimit="10" stroke-width="2"/><polyline points="50 22 54 22 54 51 10 51 10 22 14 22" fill="none" stroke="#3e3948" stroke-miterlimit="10" stroke-width="2"/><line x1="15" y1="39" x2="49" y2="39" fill="none" stroke="#3e3948" stroke-miterlimit="10" stroke-width="2"/><line x1="15" y1="43" x2="30" y2="43" fill="none" stroke="#3e3948" stroke-miterlimit="10" stroke-width="2"/><line x1="34" y1="43" x2="49" y2="43" fill="none" stroke="#3e3948" stroke-miterlimit="10" stroke-width="2"/></g></svg>